# xmcd
#
# Track frame offsets: 
#        150
#        13687
#        32366
#        61490
#        86967
#        110267
#        130038
#        152796
#        180601
#        201507
#        216678
#        229161
#
# Disc length: 3348 seconds
#
# Revision: 0
# Processed by: cddbd v1.5.2PL0 Copyright (c) Steve Scherf et al.
# Submitted via: ExactAudioCopyFreeDBPlugin 1.0
#
DISCID=a90d120c
DTITLE=Little Freddie King Blues Band - Live At The 2013 New Orleans J
DTITLE=azz and Heriage Festival
DYEAR=2013
DGENRE=Blues
TTITLE0=Swamp Boogie
TTITLE1=Kingshead Shuffle
TTITLE2=Bad News
TTITLE3=Hot Fingers
TTITLE4=I Use To Be Down
TTITLE5=Crack Head Joe
TTITLE6=Do She Ever Think Of Me
TTITLE7=Goin Out Da Mountain
TTITLE8=Hide Away
TTITLE9=J.B. Good
TTITLE10=Walkin' With Freddie
TTITLE11=Louisiana Train Wreck
EXTD=
EXTT0=
EXTT1=
EXTT2=
EXTT3=
EXTT4=
EXTT5=
EXTT6=
EXTT7=
EXTT8=
EXTT9=
EXTT10=
EXTT11=
PLAYORDER=
